<?xml version="1.0" standalone="no"?>
<!DOCTYPE svg PUBLIC "-//W3C//DTD SVG 20010904//EN"
 "http://www.w3.org/TR/2001/REC-SVG-20010904/DTD/svg10.dtd">
<svg version="1.0" xmlns="http://www.w3.org/2000/svg"
 width="800.000000pt" height="800.000000pt" viewBox="0 0 800.000000 800.000000"
 preserveAspectRatio="xMidYMid meet">
<metadata>
Created by potrace 1.14, written by Peter Selinger 2001-2017
</metadata>
<g transform="translate(0.000000,800.000000) scale(0.100000,-0.100000)"
fill="#000000" stroke="none">
<path d="M3775 7405 c-406 -43 -797 -156 -1155 -334 -435 -216 -777 -486
-1111 -876 -349 -407 -618 -960 -724 -1490 -154 -771 -60 -1515 281 -2210 164
-337 345 -592 619 -874 447 -460 998 -779 1620 -935 435 -109 939 -129 1388
-55 796 132 1511 540 2057 1175 329 382 579 878 705 1394 253 1042 -8 2173
-686 2980 -540 642 -1238 1049 -2044 1191 -278 49 -673 63 -950 34z"/>
</g>
</svg>
